# xmcd
#
# Track frame offsets: 
#        150
#        23877
#        43362
#        64725
#        87202
#        111587
#        125882
#        140870
#        161322
#
# Disc length: 2375 seconds
#
# Revision: 0
# Processed by: cddbd v1.5.2PL0 Copyright (c) Steve Scherf et al.
# Submitted via: ExactAudioCopyFreeDBPlugin 1.0
#
DISCID=87094509
DTITLE=L.T.D. - Devotion
DYEAR=1979
DGENRE=R&B
TTITLE0=One On One
TTITLE1=Share My Love
TTITLE2=Stand Up L.T.D.
TTITLE3=Say You'll Be Mine
TTITLE4=Dance 'N' Sing 'N'
TTITLE5=Sometimes
TTITLE6=Promise You'll Stay
TTITLE7=Stranger
TTITLE8=Feel It
EXTD=
EXTT0=
EXTT1=
EXTT2=
EXTT3=
EXTT4=
EXTT5=
EXTT6=
EXTT7=
EXTT8=
PLAYORDER=
